<svg width="112" height="112" viewBox="0 0 112 112" fill="none" xmlns="http://www.w3.org/2000/svg">
<g id="attention" clip-path="url(#clip0_1595_6948)">
<g id="Group">
<path id="Vector" d="M55.998 76.7556C52.8668 76.7556 50.2422 79.3803 50.2422 82.5114C50.2422 85.6426 52.8668 88.2673 55.998 88.2673C59.0141 88.2673 61.7539 85.6426 61.6157 82.6496C61.7539 79.3573 59.1522 76.7556 55.998 76.7556Z" fill="#22C062"/>
<path id="Vector_2" d="M109.275 97.1543C112.889 90.915 112.912 83.4785 109.321 77.2622L73.2661 14.8229C69.6975 8.53752 63.251 4.80774 56.0216 4.80774C48.7923 4.80774 42.3458 8.56054 38.7772 14.7999L2.67657 77.3082C-0.915068 83.5936 -0.892044 91.0762 2.74564 97.3155C6.33728 103.486 12.7608 107.193 19.9441 107.193H91.9611C99.1674 107.193 105.637 103.44 109.275 97.1543ZM101.447 92.6418C99.4436 96.0953 95.898 98.1443 91.938 98.1443H19.921C16.0071 98.1443 12.4845 96.1413 10.5275 92.7569C8.54752 89.3264 8.5245 85.2283 10.5045 81.7748L46.6051 19.2894C48.5621 15.8589 52.0616 13.8329 56.0216 13.8329C59.9586 13.8329 63.4812 15.882 65.4382 19.3124L101.516 81.7978C103.45 85.1592 103.427 89.2113 101.447 92.6418Z" fill="#22C062"/>
<path id="Vector_3" d="M54.5705 36.3498C51.8307 37.1325 50.127 39.6191 50.127 42.6351C50.2651 44.454 50.3802 46.2958 50.5183 48.1147C50.9097 55.0447 51.3011 61.8366 51.6925 68.7666C51.8307 71.115 53.6495 72.8187 55.9979 72.8187C58.3463 72.8187 60.1881 70.9999 60.3033 68.6285C60.3033 67.201 60.3033 65.8887 60.4414 64.4382C60.6947 59.9947 60.9709 55.5512 61.2242 51.1077C61.3623 48.2298 61.6156 45.3519 61.7537 42.474C61.7537 41.4379 61.6156 40.517 61.2242 39.596C60.05 37.0174 57.3102 35.7051 54.5705 36.3498Z" fill="#22C062"/>
</g>
</g>
<defs>
<clipPath id="clip0_1595_6948">
<rect width="112" height="112" fill="white"/>
</clipPath>
</defs>
</svg>
