<svg width="82" height="82" viewBox="0 0 82 82" fill="none" xmlns="http://www.w3.org/2000/svg">
<path d="M58.9375 41C55.3898 41 51.9218 42.052 48.972 44.023C46.0222 45.994 43.7231 48.7955 42.3654 52.0731C41.0078 55.3508 40.6525 58.9574 41.3447 62.4369C42.0368 65.9165 43.7452 69.1126 46.2538 71.6212C48.7624 74.1298 51.9585 75.8382 55.4381 76.5303C58.9176 77.2225 62.5242 76.8672 65.8019 75.5096C69.0795 74.1519 71.881 71.8528 73.852 68.903C75.823 65.9532 76.875 62.4852 76.875 58.9375C76.875 54.1802 74.9852 49.6177 71.6212 46.2538C68.2573 42.8898 63.6948 41 58.9375 41ZM58.9375 71.75C56.4034 71.75 53.9263 70.9986 51.8193 69.5907C49.7123 68.1828 48.07 66.1818 47.1003 63.8406C46.1306 61.4995 45.8768 58.9233 46.3712 56.4379C46.8656 53.9525 48.0858 51.6696 49.8777 49.8777C51.6696 48.0858 53.9525 46.8656 56.4379 46.3712C58.9233 45.8768 61.4995 46.1305 63.8406 47.1003C66.1818 48.07 68.1829 49.7123 69.5907 51.8193C70.9986 53.9263 71.75 56.4034 71.75 58.9375C71.75 62.3356 70.4001 65.5945 67.9973 67.9973C65.5945 70.4001 62.3356 71.75 58.9375 71.75Z" fill="#22C062"/>
<path d="M64.0625 56.375H61.5V53.8125C61.5 53.1329 61.23 52.4811 60.7495 52.0005C60.2689 51.52 59.6171 51.25 58.9375 51.25C58.2579 51.25 57.6061 51.52 57.1255 52.0005C56.645 52.4811 56.375 53.1329 56.375 53.8125V58.9375C56.375 59.6171 56.645 60.2689 57.1255 60.7495C57.6061 61.23 58.2579 61.5 58.9375 61.5H64.0625C64.7421 61.5 65.3939 61.23 65.8745 60.7495C66.355 60.2689 66.625 59.6171 66.625 58.9375C66.625 58.2579 66.355 57.6061 65.8745 57.1255C65.3939 56.645 64.7421 56.375 64.0625 56.375Z" fill="#22C062"/>
<path d="M71.75 10.25H66.625V7.6875C66.625 7.00788 66.355 6.3561 65.8745 5.87554C65.3939 5.39498 64.7421 5.125 64.0625 5.125C63.3829 5.125 62.7311 5.39498 62.2505 5.87554C61.77 6.3561 61.5 7.00788 61.5 7.6875V10.25H51.25V7.6875C51.25 7.00788 50.98 6.3561 50.4995 5.87554C50.0189 5.39498 49.3671 5.125 48.6875 5.125C48.0079 5.125 47.3561 5.39498 46.8755 5.87554C46.395 6.3561 46.125 7.00788 46.125 7.6875V10.25H35.875V7.6875C35.875 7.00788 35.605 6.3561 35.1245 5.87554C34.6439 5.39498 33.9921 5.125 33.3125 5.125C32.6329 5.125 31.9811 5.39498 31.5005 5.87554C31.02 6.3561 30.75 7.00788 30.75 7.6875V10.25H20.5V7.6875C20.5 7.00788 20.23 6.3561 19.7495 5.87554C19.2689 5.39498 18.6171 5.125 17.9375 5.125C17.2579 5.125 16.6061 5.39498 16.1255 5.87554C15.645 6.3561 15.375 7.00788 15.375 7.6875V10.25H10.25C8.89077 10.25 7.5872 10.79 6.62608 11.7511C5.66495 12.7122 5.125 14.0158 5.125 15.375V71.75C5.125 73.1092 5.66495 74.4128 6.62608 75.3739C7.5872 76.335 8.89077 76.875 10.25 76.875H38.4375C39.1171 76.875 39.7689 76.605 40.2495 76.1245C40.73 75.6439 41 74.9921 41 74.3125C41 73.6329 40.73 72.9811 40.2495 72.5005C39.7689 72.02 39.1171 71.75 38.4375 71.75H10.25V30.75H71.75V38.4375C71.75 39.1171 72.02 39.7689 72.5005 40.2495C72.9811 40.73 73.6329 41 74.3125 41C74.9921 41 75.6439 40.73 76.1245 40.2495C76.605 39.7689 76.875 39.1171 76.875 38.4375V15.375C76.875 14.0158 76.335 12.7122 75.3739 11.7511C74.4128 10.79 73.1092 10.25 71.75 10.25ZM10.25 25.625V15.375H15.375C15.375 16.0546 15.645 16.7064 16.1255 17.187C16.6061 17.6675 17.2579 17.9375 17.9375 17.9375C18.6171 17.9375 19.2689 17.6675 19.7495 17.187C20.23 16.7064 20.5 16.0546 20.5 15.375H30.75C30.75 16.0546 31.02 16.7064 31.5005 17.187C31.9811 17.6675 32.6329 17.9375 33.3125 17.9375C33.9921 17.9375 34.6439 17.6675 35.1245 17.187C35.605 16.7064 35.875 16.0546 35.875 15.375H46.125C46.125 16.0546 46.395 16.7064 46.8755 17.187C47.3561 17.6675 48.0079 17.9375 48.6875 17.9375C49.3671 17.9375 50.0189 17.6675 50.4995 17.187C50.98 16.7064 51.25 16.0546 51.25 15.375H61.5C61.5 16.0546 61.77 16.7064 62.2505 17.187C62.7311 17.6675 63.3829 17.9375 64.0625 17.9375C64.7421 17.9375 65.3939 17.6675 65.8745 17.187C66.355 16.7064 66.625 16.0546 66.625 15.375H71.75V25.625H10.25Z" fill="#22C062"/>
</svg>
