<svg width="441" height="168" viewBox="0 0 441 168" fill="none" xmlns="http://www.w3.org/2000/svg">
<path d="M64.7949 165V123.363L65.6855 121.805V43.7637H64.9062L28.502 107.666H76.373L79.2676 106.887H112.332V130.934H0.224609V108.334L67.9121 2.90625H92.7383V165H64.7949ZM170.018 111.785V56.1211C170.018 38.2344 174.545 24.541 183.6 15.041C192.729 5.4668 205.271 0.679688 221.229 0.679688C237.26 0.679688 249.84 5.39258 258.969 14.8184C268.172 24.1699 272.773 37.9375 272.773 56.1211V111.785C272.773 130.191 268.023 144.07 258.523 153.422C249.023 162.699 236.592 167.301 221.229 167.227C205.197 167.152 192.654 162.477 183.6 153.199C174.545 143.922 170.018 130.117 170.018 111.785ZM200.076 117.686C200.076 126.889 201.857 133.902 205.42 138.727C208.982 143.477 214.252 145.852 221.229 145.852C228.279 145.852 233.586 143.477 237.148 138.727C240.785 133.902 242.604 126.889 242.604 117.686V50.7773C242.604 41.5 240.785 34.4492 237.148 29.625C233.586 24.8008 228.279 22.3887 221.229 22.3887C214.252 22.3887 208.982 24.8008 205.42 29.625C201.857 34.4492 200.076 41.5 200.076 50.7773V117.686ZM393.248 165V123.363L394.139 121.805V43.7637H393.359L356.955 107.666H404.826L407.721 106.887H440.785V130.934H328.678V108.334L396.365 2.90625H421.191V165H393.248Z" fill="#1EB159"/>
</svg>
