<svg width="80" height="80" viewBox="0 0 80 80" fill="none" xmlns="http://www.w3.org/2000/svg">
<g id="Frame" clip-path="url(#clip0_1997_17040)">
<g id="Group">
<path id="Vector" d="M40 0C17.8919 0 0 17.8902 0 40C0 62.1083 17.8902 80 40 80C62.1081 80 80 62.1098 80 40C80 17.8917 62.1098 0 40 0ZM40 73.75C21.3462 73.75 6.25 58.6552 6.25 40C6.25 21.3461 21.3448 6.25 40 6.25C58.6538 6.25 73.75 21.3448 73.75 40C73.75 58.6539 58.6552 73.75 40 73.75Z" fill="#ED513B"/>
<path id="Vector_2" d="M53.6845 49.265L44.4186 39.9991L53.6845 30.7332C54.9048 29.5129 54.905 27.5343 53.6847 26.3138C52.464 25.0933 50.4854 25.0935 49.2653 26.3138L39.9992 35.5797L30.7331 26.3138C29.5129 25.0933 27.534 25.0933 26.3137 26.3138C25.0934 27.5343 25.0934 29.5129 26.3139 30.7332L35.5798 39.9991L26.3139 49.265C25.0934 50.4855 25.0932 52.4641 26.3137 53.6844C27.5345 54.905 29.5131 54.9046 30.7331 53.6844L39.9992 44.4185L49.2653 53.6844C50.4853 54.9047 52.4642 54.9049 53.6847 53.6844C54.9051 52.4639 54.905 50.4854 53.6845 49.265Z" fill="#ED513B"/>
</g>
</g>
<defs>
<clipPath id="clip0_1997_17040">
<rect width="80" height="80" fill="white"/>
</clipPath>
</defs>
</svg>
