<svg width="24" height="24" viewBox="0 0 24 24" fill="none" xmlns="http://www.w3.org/2000/svg">
<g id="status">
<path id="Vector" d="M12 0C5.36761 0 0 5.367 0 12C0 18.6323 5.367 24 12 24C18.6324 24 24 18.633 24 12C24 5.36761 18.633 0 12 0ZM12 22.3256C6.30647 22.3256 1.67442 17.6936 1.67442 12C1.67442 6.30642 6.30647 1.67442 12 1.67442C17.6936 1.67442 22.3256 6.30642 22.3256 12C22.3256 17.6936 17.6936 22.3256 12 22.3256Z" fill="#646464"/>
<path id="Vector_2" d="M11.6651 14.9457C10.9946 14.9457 10.4518 15.5155 10.4518 16.1993C10.4518 16.867 10.9786 17.4531 11.6651 17.4531C12.3516 17.4531 12.8943 16.867 12.8943 16.1993C12.8943 15.5155 12.3355 14.9457 11.6651 14.9457ZM11.8726 5.45312C9.71733 5.45312 8.72754 6.75576 8.72754 7.63497C8.72754 8.26998 9.25437 8.56309 9.6854 8.56309C10.5475 8.56309 10.1963 7.3093 11.8247 7.3093C12.6229 7.3093 13.2615 7.66754 13.2615 8.41654C13.2615 9.29575 12.3675 9.80049 11.8407 10.2564C11.3776 10.6634 10.771 11.331 10.771 12.7313C10.771 13.5779 10.9946 13.8222 11.6491 13.8222C12.4313 13.8222 12.591 13.464 12.591 13.1546C12.591 12.3079 12.6069 11.8195 13.485 11.1193C13.916 10.7774 15.273 9.67017 15.273 8.13967C15.273 6.60916 13.916 5.45312 11.8726 5.45312Z" fill="#646464"/>
</g>
</svg>
