<svg width="80" height="80" viewBox="0 0 80 80" fill="none" xmlns="http://www.w3.org/2000/svg">
<g id="Frame">
<g id="Group">
<path id="Vector" d="M72.1739 13.043H7.82609C3.51047 13.043 0 16.558 0 20.8691V59.13C0 63.4459 3.51531 66.9561 7.82609 66.9561H72.1739C76.483 66.9561 80 63.4478 80 59.13V20.8691C80 16.5595 76.4911 13.043 72.1739 13.043ZM71.963 18.2605L41.8447 48.3789C40.8248 49.3986 39.1752 49.3986 38.1553 48.3789C37.2348 47.4581 9.36359 19.587 8.03703 18.2605H71.963ZM5.21734 58.9191V22.8192L23.2672 40.8691L5.21734 58.9191ZM9.77609 61.7386L26.9564 44.5583L34.4659 52.0678C37.5169 55.1191 42.4822 55.1192 45.5337 52.0678L53.0433 44.5583L70.2238 61.7386H9.77609ZM74.7827 58.9191L56.7327 40.8691L74.7825 22.8192V58.9191H74.7827Z" fill="#22C062"/>
</g>
</g>
</svg>
