<svg width="240" height="240" viewBox="0 0 240 240" fill="none" xmlns="http://www.w3.org/2000/svg">
<path d="M195 26.25H75C70.029 26.256 65.2633 28.2333 61.7483 31.7483C58.2333 35.2633 56.256 40.029 56.25 45V176.25H37.5C34.5163 176.25 31.6548 177.435 29.545 179.545C27.4353 181.655 26.25 184.516 26.25 187.5V195C26.256 199.971 28.2333 204.737 31.7483 208.252C35.2633 211.767 40.029 213.744 45 213.75H165C169.971 213.744 174.737 211.767 178.252 208.252C181.767 204.737 183.744 199.971 183.75 195V63.75H202.5C205.484 63.75 208.345 62.5647 210.455 60.455C212.565 58.3452 213.75 55.4837 213.75 52.5V45C213.744 40.029 211.767 35.2633 208.252 31.7483C204.737 28.2333 199.971 26.256 195 26.25ZM45 206.25C42.0163 206.25 39.1548 205.065 37.045 202.955C34.9353 200.845 33.75 197.984 33.75 195V187.5C33.75 186.505 34.1451 185.552 34.8483 184.848C35.5516 184.145 36.5054 183.75 37.5 183.75H142.5C143.495 183.75 144.448 184.145 145.152 184.848C145.855 185.552 146.25 186.505 146.25 187.5V195C146.245 199.058 147.561 203.007 150 206.25H45ZM176.25 195C176.25 197.984 175.065 200.845 172.955 202.955C170.845 205.065 167.984 206.25 165 206.25C162.016 206.25 159.155 205.065 157.045 202.955C154.935 200.845 153.75 197.984 153.75 195V187.5C153.75 184.516 152.565 181.655 150.455 179.545C148.345 177.435 145.484 176.25 142.5 176.25H63.75V45C63.75 42.0163 64.9353 39.1548 67.045 37.045C69.1548 34.9353 72.0163 33.75 75 33.75H180.098C177.616 36.9765 176.264 40.9295 176.25 45V195ZM206.25 52.5C206.25 53.4946 205.855 54.4484 205.152 55.1516C204.448 55.8549 203.495 56.25 202.5 56.25H183.75V45C183.75 42.0163 184.935 39.1548 187.045 37.045C189.155 34.9353 192.016 33.75 195 33.75C197.984 33.75 200.845 34.9353 202.955 37.045C205.065 39.1548 206.25 42.0163 206.25 45V52.5Z" fill="#D7DDDA"/>
<path d="M90 63.75H150C150.995 63.75 151.948 63.3549 152.652 62.6516C153.355 61.9484 153.75 60.9946 153.75 60C153.75 59.0054 153.355 58.0516 152.652 57.3484C151.948 56.6451 150.995 56.25 150 56.25H90C89.0054 56.25 88.0516 56.6451 87.3483 57.3484C86.6451 58.0516 86.25 59.0054 86.25 60C86.25 60.9946 86.6451 61.9484 87.3483 62.6516C88.0516 63.3549 89.0054 63.75 90 63.75Z" fill="#D7DDDA"/>
<path d="M161.25 86.25H78.75C77.7554 86.25 76.8016 86.6451 76.0984 87.3483C75.3951 88.0516 75 89.0054 75 90C75 90.9946 75.3951 91.9484 76.0984 92.6517C76.8016 93.3549 77.7554 93.75 78.75 93.75H161.25C162.245 93.75 163.198 93.3549 163.902 92.6517C164.605 91.9484 165 90.9946 165 90C165 89.0054 164.605 88.0516 163.902 87.3483C163.198 86.6451 162.245 86.25 161.25 86.25Z" fill="#D7DDDA"/>
<path d="M161.25 101.25H78.75C77.7554 101.25 76.8016 101.645 76.0984 102.348C75.3951 103.052 75 104.005 75 105C75 105.995 75.3951 106.948 76.0984 107.652C76.8016 108.355 77.7554 108.75 78.75 108.75H161.25C162.245 108.75 163.198 108.355 163.902 107.652C164.605 106.948 165 105.995 165 105C165 104.005 164.605 103.052 163.902 102.348C163.198 101.645 162.245 101.25 161.25 101.25Z" fill="#D7DDDA"/>
<path d="M123.75 120C123.75 119.005 123.355 118.052 122.652 117.348C121.948 116.645 120.995 116.25 120 116.25H78.75C77.7554 116.25 76.8016 116.645 76.0984 117.348C75.3951 118.052 75 119.005 75 120C75 120.995 75.3951 121.948 76.0984 122.652C76.8016 123.355 77.7554 123.75 78.75 123.75H120C120.995 123.75 121.948 123.355 122.652 122.652C123.355 121.948 123.75 120.995 123.75 120Z" fill="#D7DDDA"/>
<path d="M155.461 141.634C153.845 140.552 151.945 139.975 150.001 139.975C148.056 139.975 146.156 140.552 144.541 141.634L141.736 143.509C141.219 143.851 140.587 143.975 139.979 143.853C139.371 143.73 138.836 143.372 138.492 142.856C137.684 141.645 136.617 140.629 135.369 139.879C134.121 139.13 132.722 138.667 131.274 138.524C129.825 138.38 128.362 138.56 126.992 139.05C125.621 139.539 124.375 140.327 123.346 141.356L117.346 147.356C116.663 148.063 116.285 149.011 116.293 149.994C116.302 150.977 116.696 151.918 117.391 152.613C118.087 153.308 119.027 153.703 120.01 153.711C120.994 153.72 121.941 153.342 122.648 152.659L128.648 146.659C128.895 146.415 129.192 146.229 129.519 146.114C129.846 145.999 130.194 145.958 130.539 145.994C130.883 146.03 131.216 146.142 131.512 146.322C131.808 146.501 132.061 146.745 132.252 147.034C133.701 149.204 135.952 150.71 138.51 151.222C141.069 151.734 143.726 151.209 145.898 149.764L148.703 147.889C149.087 147.63 149.538 147.492 150.001 147.492C150.463 147.492 150.915 147.63 151.298 147.889L159.173 153.139C159.583 153.412 160.042 153.602 160.526 153.698C161.009 153.793 161.506 153.793 161.989 153.697C162.472 153.6 162.931 153.409 163.34 153.136C163.75 152.862 164.101 152.51 164.374 152.1C164.648 151.69 164.838 151.231 164.933 150.748C165.029 150.264 165.029 149.767 164.932 149.284C164.836 148.801 164.645 148.342 164.371 147.933C164.097 147.523 163.745 147.172 163.336 146.899L155.461 141.634Z" fill="#D7DDDA"/>
</svg>
