<svg width="240" height="240" viewBox="0 0 240 240" fill="none" xmlns="http://www.w3.org/2000/svg">
<path d="M183.75 30H78.75C75.7663 30 72.9048 31.1853 70.795 33.295C68.6853 35.4048 67.5 38.2663 67.5 41.25V52.5H56.25C53.2663 52.5 50.4048 53.6853 48.295 55.795C46.1853 57.9048 45 60.7663 45 63.75V198.75C45 201.734 46.1853 204.595 48.295 206.705C50.4048 208.815 53.2663 210 56.25 210H161.25C164.234 210 167.095 208.815 169.205 206.705C171.315 204.595 172.5 201.734 172.5 198.75V187.5H183.75C186.734 187.5 189.595 186.315 191.705 184.205C193.815 182.095 195 179.234 195 176.25V41.25C195 38.2663 193.815 35.4048 191.705 33.295C189.595 31.1853 186.734 30 183.75 30ZM165 198.75C165 199.745 164.605 200.698 163.902 201.402C163.198 202.105 162.245 202.5 161.25 202.5H56.25C55.2554 202.5 54.3016 202.105 53.5984 201.402C52.8951 200.698 52.5 199.745 52.5 198.75V63.75C52.5 62.7554 52.8951 61.8016 53.5984 61.0984C54.3016 60.3951 55.2554 60 56.25 60H131.25V82.5C131.25 85.4837 132.435 88.3452 134.545 90.455C136.655 92.5647 139.516 93.75 142.5 93.75H165V198.75ZM138.75 61.5525L163.447 86.25H142.5C141.505 86.25 140.552 85.8549 139.848 85.1516C139.145 84.4484 138.75 83.4946 138.75 82.5V61.5525ZM187.5 176.25C187.5 177.245 187.105 178.198 186.402 178.902C185.698 179.605 184.745 180 183.75 180H172.5V89.355C172.504 87.8771 172.215 86.413 171.649 85.0477C171.083 83.6824 170.252 82.4429 169.204 81.4012L143.599 55.7963C142.556 54.7482 141.316 53.9173 139.95 53.3515C138.584 52.7858 137.12 52.4963 135.641 52.5H75V41.25C75 40.2554 75.3951 39.3016 76.0984 38.5983C76.8016 37.8951 77.7554 37.5 78.75 37.5H183.75C184.745 37.5 185.698 37.8951 186.402 38.5983C187.105 39.3016 187.5 40.2554 187.5 41.25V176.25Z" fill="#D7DDDA"/>
<path d="M67.5 105H90C90.9946 105 91.9484 104.605 92.6516 103.902C93.3549 103.198 93.75 102.245 93.75 101.25V78.75C93.75 77.7554 93.3549 76.8016 92.6516 76.0984C91.9484 75.3951 90.9946 75 90 75H67.5C66.5054 75 65.5516 75.3951 64.8484 76.0984C64.1451 76.8016 63.75 77.7554 63.75 78.75V101.25C63.75 102.245 64.1451 103.198 64.8484 103.902C65.5516 104.605 66.5054 105 67.5 105ZM71.25 82.5H86.25V97.5H71.25V82.5Z" fill="#D7DDDA"/>
<path d="M150 120H67.5C66.5054 120 65.5516 120.395 64.8484 121.098C64.1451 121.802 63.75 122.755 63.75 123.75C63.75 124.745 64.1451 125.698 64.8484 126.402C65.5516 127.105 66.5054 127.5 67.5 127.5H150C150.995 127.5 151.948 127.105 152.652 126.402C153.355 125.698 153.75 124.745 153.75 123.75C153.75 122.755 153.355 121.802 152.652 121.098C151.948 120.395 150.995 120 150 120Z" fill="#D7DDDA"/>
<path d="M150 142.5H67.5C66.5054 142.5 65.5516 142.895 64.8484 143.598C64.1451 144.302 63.75 145.255 63.75 146.25C63.75 147.245 64.1451 148.198 64.8484 148.902C65.5516 149.605 66.5054 150 67.5 150H150C150.995 150 151.948 149.605 152.652 148.902C153.355 148.198 153.75 147.245 153.75 146.25C153.75 145.255 153.355 144.302 152.652 143.598C151.948 142.895 150.995 142.5 150 142.5Z" fill="#D7DDDA"/>
<path d="M150 165H67.5C66.5054 165 65.5516 165.395 64.8484 166.098C64.1451 166.802 63.75 167.755 63.75 168.75C63.75 169.745 64.1451 170.698 64.8484 171.402C65.5516 172.105 66.5054 172.5 67.5 172.5H150C150.995 172.5 151.948 172.105 152.652 171.402C153.355 170.698 153.75 169.745 153.75 168.75C153.75 167.755 153.355 166.802 152.652 166.098C151.948 165.395 150.995 165 150 165Z" fill="#D7DDDA"/>
</svg>
