<svg width="240" height="240" viewBox="0 0 240 240" fill="none" xmlns="http://www.w3.org/2000/svg">
<path d="M187.5 80.625H142.5V69.375C142.5 63.4076 140.129 57.6847 135.91 53.4651C131.69 49.2455 125.967 46.875 120 46.875C114.033 46.875 108.31 49.2455 104.09 53.4651C99.8705 57.6847 97.5 63.4076 97.5 69.375V80.625H52.5C49.5163 80.625 46.6548 81.8103 44.545 83.92C42.4353 86.0298 41.25 88.8913 41.25 91.875V181.875C41.25 184.859 42.4353 187.72 44.545 189.83C46.6548 191.94 49.5163 193.125 52.5 193.125H187.5C190.484 193.125 193.345 191.94 195.455 189.83C197.565 187.72 198.75 184.859 198.75 181.875V91.875C198.75 88.8913 197.565 86.0298 195.455 83.92C193.345 81.8103 190.484 80.625 187.5 80.625ZM105 69.375C105 65.3968 106.58 61.5814 109.393 58.7684C112.206 55.9554 116.022 54.375 120 54.375C123.978 54.375 127.794 55.9554 130.607 58.7684C133.42 61.5814 135 65.3968 135 69.375V80.625H105V69.375ZM191.25 181.875C191.25 182.87 190.855 183.823 190.152 184.527C189.448 185.23 188.495 185.625 187.5 185.625H52.5C51.5054 185.625 50.5516 185.23 49.8484 184.527C49.1451 183.823 48.75 182.87 48.75 181.875V91.875C48.75 90.8804 49.1451 89.9266 49.8484 89.2234C50.5516 88.5201 51.5054 88.125 52.5 88.125H187.5C188.495 88.125 189.448 88.5201 190.152 89.2234C190.855 89.9266 191.25 90.8804 191.25 91.875V181.875Z" fill="#D7DDDA"/>
<path d="M97.35 128.123C99.3045 125.972 100.592 123.3 101.057 120.432C101.522 117.564 101.143 114.622 99.9674 111.965C98.7918 109.307 96.8695 107.048 94.4343 105.463C91.9991 103.877 89.1558 103.033 86.25 103.033C83.3442 103.033 80.5009 103.877 78.0657 105.463C75.6305 107.048 73.7082 109.307 72.5326 111.965C71.3569 114.622 70.9784 117.564 71.443 120.432C71.9077 123.3 73.1955 125.972 75.15 128.123C70.6284 130.232 66.8018 133.587 64.1185 137.794C61.4353 142.001 60.0067 146.885 60 151.875V159.375C60 162.359 61.1853 165.22 63.295 167.33C65.4048 169.44 68.2663 170.625 71.25 170.625H101.25C104.234 170.625 107.095 169.44 109.205 167.33C111.315 165.22 112.5 162.359 112.5 159.375V151.875C112.493 146.885 111.065 142.001 108.381 137.794C105.698 133.587 101.872 130.232 97.35 128.123ZM78.75 118.125C78.75 116.642 79.1899 115.192 80.014 113.958C80.8381 112.725 82.0094 111.764 83.3799 111.196C84.7503 110.628 86.2583 110.48 87.7132 110.769C89.168 111.059 90.5044 111.773 91.5533 112.822C92.6022 113.871 93.3165 115.207 93.6059 116.662C93.8953 118.117 93.7468 119.625 93.1791 120.995C92.6114 122.366 91.6501 123.537 90.4168 124.361C89.1834 125.185 87.7334 125.625 86.25 125.625C84.2609 125.625 82.3532 124.835 80.9467 123.428C79.5402 122.022 78.75 120.114 78.75 118.125ZM105 159.375C105 160.37 104.605 161.323 103.902 162.027C103.198 162.73 102.245 163.125 101.25 163.125H71.25C70.2554 163.125 69.3016 162.73 68.5984 162.027C67.8951 161.323 67.5 160.37 67.5 159.375V151.875C67.5 146.902 69.4754 142.133 72.9917 138.617C76.5081 135.1 81.2772 133.125 86.25 133.125C91.2228 133.125 95.9919 135.1 99.5083 138.617C103.025 142.133 105 146.902 105 151.875V159.375Z" fill="#D7DDDA"/>
<path d="M176.25 110.625H131.25C130.255 110.625 129.302 111.02 128.598 111.723C127.895 112.427 127.5 113.38 127.5 114.375C127.5 115.37 127.895 116.323 128.598 117.027C129.302 117.73 130.255 118.125 131.25 118.125H176.25C177.245 118.125 178.198 117.73 178.902 117.027C179.605 116.323 180 115.37 180 114.375C180 113.38 179.605 112.427 178.902 111.723C178.198 111.02 177.245 110.625 176.25 110.625Z" fill="#D7DDDA"/>
<path d="M176.25 155.625H131.25C130.255 155.625 129.302 156.02 128.598 156.723C127.895 157.427 127.5 158.38 127.5 159.375C127.5 160.37 127.895 161.323 128.598 162.027C129.302 162.73 130.255 163.125 131.25 163.125H176.25C177.245 163.125 178.198 162.73 178.902 162.027C179.605 161.323 180 160.37 180 159.375C180 158.38 179.605 157.427 178.902 156.723C178.198 156.02 177.245 155.625 176.25 155.625Z" fill="#D7DDDA"/>
<path d="M176.25 133.125H131.25C130.255 133.125 129.302 133.52 128.598 134.223C127.895 134.927 127.5 135.88 127.5 136.875C127.5 137.87 127.895 138.823 128.598 139.527C129.302 140.23 130.255 140.625 131.25 140.625H176.25C177.245 140.625 178.198 140.23 178.902 139.527C179.605 138.823 180 137.87 180 136.875C180 135.88 179.605 134.927 178.902 134.223C178.198 133.52 177.245 133.125 176.25 133.125Z" fill="#D7DDDA"/>
<path d="M120 73.125C123.107 73.125 125.625 70.6066 125.625 67.5C125.625 64.3934 123.107 61.875 120 61.875C116.893 61.875 114.375 64.3934 114.375 67.5C114.375 70.6066 116.893 73.125 120 73.125Z" fill="#D7DDDA"/>
</svg>
