<svg width="80" height="80" viewBox="0 0 80 80" fill="none" xmlns="http://www.w3.org/2000/svg">
<g id="success" clip-path="url(#clip0_1810_12615)">
<g id="Group">
<path id="Vector" d="M40 0C17.9427 0 0 17.9427 0 40C0 62.0573 17.9427 80 40 80C62.0573 80 80 62.0542 80 40C80 17.9458 62.0573 0 40 0ZM40 73.8033C21.3633 73.8033 6.19672 58.6398 6.19672 40C6.19672 21.3602 21.3633 6.19672 40 6.19672C58.6398 6.19672 73.8033 21.3602 73.8033 40C73.8033 58.6398 58.6367 73.8033 40 73.8033Z" fill="#22C062"/>
<path id="Vector_2" d="M58.3511 26.0884C57.09 24.942 55.1287 25.0319 53.9762 26.2991L35.0761 47.1109L25.9451 37.8283C24.7398 36.6075 22.7817 36.5889 21.564 37.7911C20.3433 38.9902 20.3247 40.9514 21.5269 42.1722L32.9567 53.7911C33.2449 54.0846 33.5887 54.3177 33.968 54.4767C34.3473 54.6358 34.7545 54.7177 35.1658 54.7175C35.1844 54.7175 35.2061 54.7175 35.2247 54.7206C35.6466 54.7122 36.0623 54.6177 36.4465 54.443C36.8306 54.2682 37.175 54.0169 37.4586 53.7044L58.5615 30.4666C59.7112 29.1961 59.6183 27.238 58.3511 26.0884Z" fill="#22C062"/>
</g>
</g>
<defs>
<clipPath id="clip0_1810_12615">
<rect width="80" height="80" fill="white"/>
</clipPath>
</defs>
</svg>
